FILE "The Courage to Be Disliked꞉ How to Free Yourself, Change Your Life and Achieve Real Happiness [B079MJHGXG].m4b" MP3
TRACK 1 AUDIO
  TITLE "Chapter 1"
  INDEX 01 0:00:00
TRACK 2 AUDIO
  TITLE "Chapter 2"
  INDEX 01 1:29:36
TRACK 3 AUDIO
  TITLE "Chapter 3"
  INDEX 01 7:28:73
TRACK 4 AUDIO
  TITLE "Chapter 4"
  INDEX 01 14:19:52
TRACK 5 AUDIO
  TITLE "Chapter 5"
  INDEX 01 21:25:51
TRACK 6 AUDIO
  TITLE "Chapter 6"
  INDEX 01 26:54:29
TRACK 7 AUDIO
  TITLE "Chapter 7"
  INDEX 01 31:27:20
TRACK 8 AUDIO
  TITLE "Chapter 8"
  INDEX 01 34:32:14
TRACK 9 AUDIO
  TITLE "Chapter 9"
  INDEX 01 38:49:70
TRACK 10 AUDIO
  TITLE "Chapter 10"
  INDEX 01 43:45:08
TRACK 11 AUDIO
  TITLE "Chapter 11"
  INDEX 01 52:14:20
TRACK 12 AUDIO
  TITLE "Chapter 12"
  INDEX 01 59:24:40
TRACK 13 AUDIO
  TITLE "Chapter 13"
  INDEX 01 72:40:53
TRACK 14 AUDIO
  TITLE "Chapter 14"
  INDEX 01 77:38:04
TRACK 15 AUDIO
  TITLE "Chapter 15"
  INDEX 01 85:54:41
TRACK 16 AUDIO
  TITLE "Chapter 16"
  INDEX 01 94:32:33
TRACK 17 AUDIO
  TITLE "Chapter 17"
  INDEX 01 105:55:40
TRACK 18 AUDIO
  TITLE "Chapter 18"
  INDEX 01 112:00:58
TRACK 19 AUDIO
  TITLE "Chapter 19"
  INDEX 01 120:50:21
TRACK 20 AUDIO
  TITLE "Chapter 20"
  INDEX 01 128:02:66
TRACK 21 AUDIO
  TITLE "Chapter 21"
  INDEX 01 132:48:15
TRACK 22 AUDIO
  TITLE "Chapter 22"
  INDEX 01 140:18:50
TRACK 23 AUDIO
  TITLE "Chapter 23"
  INDEX 01 148:08:13
TRACK 24 AUDIO
  TITLE "Chapter 24"
  INDEX 01 153:35:61
TRACK 25 AUDIO
  TITLE "Chapter 25"
  INDEX 01 156:46:51
TRACK 26 AUDIO
  TITLE "Chapter 26"
  INDEX 01 164:51:52
TRACK 27 AUDIO
  TITLE "Chapter 27"
  INDEX 01 174:19:60
TRACK 28 AUDIO
  TITLE "Chapter 28"
  INDEX 01 181:00:60
TRACK 29 AUDIO
  TITLE "Chapter 29"
  INDEX 01 185:53:25
TRACK 30 AUDIO
  TITLE "Chapter 30"
  INDEX 01 192:50:16
TRACK 31 AUDIO
  TITLE "Chapter 31"
  INDEX 01 201:06:43
TRACK 32 AUDIO
  TITLE "Chapter 32"
  INDEX 01 209:10:25
TRACK 33 AUDIO
  TITLE "Chapter 33"
  INDEX 01 218:03:14
TRACK 34 AUDIO
  TITLE "Chapter 34"
  INDEX 01 226:56:24
TRACK 35 AUDIO
  TITLE "Chapter 35"
  INDEX 01 235:20:14
TRACK 36 AUDIO
  TITLE "Chapter 36"
  INDEX 01 240:52:52
TRACK 37 AUDIO
  TITLE "Chapter 37"
  INDEX 01 245:23:47
TRACK 38 AUDIO
  TITLE "Chapter 38"
  INDEX 01 252:35:25
TRACK 39 AUDIO
  TITLE "Chapter 39"
  INDEX 01 262:59:40
TRACK 40 AUDIO
  TITLE "Chapter 40"
  INDEX 01 272:12:20
TRACK 41 AUDIO
  TITLE "Chapter 41"
  INDEX 01 278:34:07
TRACK 42 AUDIO
  TITLE "Chapter 42"
  INDEX 01 284:35:33
TRACK 43 AUDIO
  TITLE "Chapter 43"
  INDEX 01 292:13:04
TRACK 44 AUDIO
  TITLE "Chapter 44"
  INDEX 01 302:11:36
TRACK 45 AUDIO
  TITLE "Chapter 45"
  INDEX 01 307:36:21
TRACK 46 AUDIO
  TITLE "Chapter 46"
  INDEX 01 314:12:52
TRACK 47 AUDIO
  TITLE "Chapter 47"
  INDEX 01 325:19:12
TRACK 48 AUDIO
  TITLE "Chapter 48"
  INDEX 01 332:06:25
TRACK 49 AUDIO
  TITLE "Chapter 49"
  INDEX 01 338:38:36
TRACK 50 AUDIO
  TITLE "Chapter 50"
  INDEX 01 347:34:71
TRACK 51 AUDIO
  TITLE "Chapter 51"
  INDEX 01 356:42:60
TRACK 52 AUDIO
  TITLE "Chapter 52"
  INDEX 01 362:42:74
TRACK 53 AUDIO
  TITLE "Chapter 53"
  INDEX 01 366:46:71
TRACK 54 AUDIO
  TITLE "Chapter 54"
  INDEX 01 370:30:06
TRACK 55 AUDIO
  TITLE "Chapter 55"
  INDEX 01 376:52:60
TRACK 56 AUDIO
  TITLE "Chapter 56"
  INDEX 01 381:27:65
TRACK 57 AUDIO
  TITLE "Chapter 57"
  INDEX 01 386:57:30
TRACK 58 AUDIO
  TITLE "Chapter 58"
  INDEX 01 397:55:37
